<?xml version="1.0" encoding="utf-8"?>
<!-- Generator: Adobe Illustrator 24.1.3, SVG Export Plug-In . SVG Version: 6.00 Build 0)  -->
<svg version="1.1" id="Calque_1" xmlns="http://www.w3.org/2000/svg" xmlns:xlink="http://www.w3.org/1999/xlink" x="0px" y="0px"
	 viewBox="0 0 2000 2000" style="enable-background:new 0 0 2000 2000;" xml:space="preserve">
<style type="text/css">
	.st0{fill:#009CDE;}
	.st1{fill:#FFFFFF;}
	.st2{fill:#C8E2E8;}
	.st3{fill:url(#SVGID_1_);}
	.st4{fill:url(#SVGID_2_);}
</style>
<circle class="st0" cx="992.6" cy="794.7" r="595.9"/>
<path class="st1" d="M1228.5,588.7l79.3-79c27.5-27.5,27.5-72.1,0-99.6l-1-1c-27.5-27.5-72.1-27.5-99.6,0l-80.7,80.5
	c-39.2-21.5-82.8-32.7-127.5-32.5h-5.3c-44.6,0-88.6,11.2-127.7,32.5l-80-79.7c-27.5-27.5-72.1-27.5-99.6,0l0,0l-1,1
	c-27.5,27.5-27.5,72.1,0,99.6l0,0l78.5,78.5c-23.6,40.6-36.3,86.9-36.1,133.9v608.6c169.5,83.8,368.6,82.4,536.7-3.8v-605
	C1264.8,675.6,1252.4,629.5,1228.5,588.7z"/>
<path class="st0" d="M1205.3,460.5l18.9-19.1c12.7-12.7,32.9-12.9,45.8-0.2l0.5,0.5c12.7,12.7,12.9,32.9,0.2,45.8l-64.2,64.9
	l-0.5-0.5C1180.7,526.8,1180.5,485.8,1205.3,460.5z"/>
<path class="st0" d="M781.6,460.5l-18.9-19.1c-12.7-12.7-32.9-12.9-45.8-0.2l-0.5,0.5c-12.7,12.7-12.9,32.9-0.2,45.8l64.2,64.9
	l0.5-0.5C806.4,526.8,806.6,485.8,781.6,460.5z"/>
<path class="st0" d="M894.7,1127.8c-1.2,0-2.4,0-3.6-0.2c-14.6-2.4-21.5-17.9-26-28.4c-0.7-1.4-1.2-2.9-1.9-4.1l-1.4-2.9
	c-1.4-3.1-3.3-6.9-4.1-7.2s-5,1.4-9.3,3.1l-3.8,1.7c-21.2,9.1-34.6,9.6-41.3,1.9c-13.1-15.3,12.4-58.3,15.5-63c1.2-1.7,3.3-1.9,5-1
	c1.4,1,1.9,3.1,1.2,4.5c-10.3,16.5-23.6,45.8-16.2,54.7c4.1,4.8,15.8,3.3,32.9-4.1l3.8-1.7c15-6,16.7-4.8,22.4,7.4l1.4,2.9
	c0.7,1.2,1.2,2.6,1.9,4.3c3.8,8.8,9.8,22.4,20.5,24.1c10,1.7,23.2-6.7,39.2-24.6c1.2-1.4,3.6-1.7,5-0.5c1.4,1.2,1.7,3.6,0.5,5
	l-0.2,0.2C920.5,1118.7,906.7,1127.8,894.7,1127.8z"/>
<path class="st0" d="M1141.8,1219.9h-1.2c-17.7-0.7-31-16.2-35.1-26c-2.1-5.5-6.4-9.8-12.2-11.5c-6.4-1.7-14.1,0.2-21.5,5.7
	c-11.7,9.3-23.2,12.2-33.9,8.8c-25.1-8.4-36.5-49.2-37-50.9c-0.5-1.9,0.5-3.8,2.6-4.3c1.9-0.5,3.8,0.5,4.3,2.4
	c0,0.5,11,38.9,32.5,46.1c8.4,2.6,17.7,0.2,27.5-7.6c9.3-6.7,19.1-9.3,27.7-6.9c7.6,2.4,13.8,8.1,16.7,15.5
	c3.8,8.8,15.3,21.2,28.9,21.7c14.1,0.5,27.9-11.7,40.3-35.6c0.7-1.9,2.9-2.6,4.8-1.9c1.9,0.7,2.6,2.9,1.9,4.8c0,0.2-0.2,0.2-0.2,0.5
	C1174.1,1206.6,1158.5,1219.9,1141.8,1219.9z"/>
<path class="st0" d="M859.6,1322.8h-0.7c-22-0.7-36.8-32.9-37.5-34.4c-0.7-1.9,0-3.8,1.9-4.8s3.8,0,4.8,1.9c0,0.2,13.6,29.6,31,30.1
	h0.5c9.5,0,19.1-8.8,28.2-26.3c3.3-7.9,10-13.6,18.4-15.8c9.6-2.4,19.8-0.2,27.7,5.7c6,4.3,19.3,8.1,28.4,2.1
	c11-7.2,13.6-26.5,7.4-56.1c-0.5-1.9,0.7-3.8,2.9-4.3c1.9-0.5,3.8,0.7,4.3,2.9c6.9,33.2,3.3,54.4-10.5,63.5
	c-11.9,7.9-28.4,3.3-36.3-2.4c-6.2-4.8-14.1-6.4-21.7-4.5c-6.2,1.7-11.2,6-13.8,11.9C883.5,1312.8,872,1322.8,859.6,1322.8z"/>
<path class="st0" d="M1096,1072.4c-5.7,0-20.1-2.4-37-24.1c-1.2-1.4-1-3.8,0.5-5c1.4-1.2,3.8-1,5,0.5c0,0,0,0,0.2,0.2
	c5.3,6.7,21.2,23.4,32.5,21.2c5.3-1,9.1-6,11.9-14.8c3.3-11,11-17,19.8-15.8h0.2c6.4,1,17.4,2.4,22.2-3.6c3.3-4.3,5.5-14.3-3.8-38.7
	c-0.7-1.9,0.2-3.8,2.1-4.5c1.9-0.7,3.8,0.2,4.5,2.1l0,0c8.6,22.4,9.5,37.5,2.9,45.8c-7.4,9.1-20.8,7.2-28.9,6h-0.2
	c-5.3-0.7-9.6,3.3-11.9,10.7c-3.6,11.7-9.6,18.4-17.4,19.8C1097.7,1072.4,1096.7,1072.4,1096,1072.4z"/>
<path class="st2" d="M815.2,818.1c0,100.3,77.4,179.3,177.9,179.3c100.5,0,177.9-84,177.9-184.3v-68.5l-140.1-29.1l-40.3-13.4
	L953,713.8l-139.2,30.8L815.2,818.1z"/>
<path class="st0" d="M991.9,789.2h1.4c36.8,0,66.6,29.8,66.6,66.6v48.9c0,36.8-29.8,66.6-66.6,66.6h-1.4
	c-36.8,0-66.6-29.8-66.6-66.6v-48.9C925.3,819.1,955.1,789.2,991.9,789.2z"/>
<path d="M1028.9,901.4c-2.4,0-4.5,1.9-4.5,4.5l0,0c0,12.7-7.6,23.9-19.1,28.9l0,0l-1.7,0.7c-6,1.9-6.4-2.9-6.4-4.1v-59l0,0
	c0,0-0.2-4.1,3.1-4.8l0,0c11-2.9,19.3-11.9,21.2-23.4c0.2-1.2,0.5-2.1,0.5-3.3c0-0.2,0-0.5,0-0.7s0-0.5,0-0.7l0,0
	c-0.2-4.1-2.4-7.9-5.7-10.3l0,0c-0.2-0.2-0.5-0.2-0.7-0.5l-0.5-0.2c-13.6-8.8-31-8.8-44.4,0.2l0,0c-5.3,3.6-7.9,10-6,16.2
	c2.1,11.2,10.7,20.1,21.7,22.7l0,0c1.4,0.7,2.4,2.1,2.4,3.8v59.7c0,1-0.2,6-6.4,4.3l-1.7-0.7l0,0c-11.5-5-19.1-16.2-19.1-28.9
	c0-2.4-1.9-4.5-4.5-4.5c-2.4,0-4.5,1.9-4.5,4.5l0,0c0,22.4,18.1,40.6,40.6,40.6s40.6-18.1,40.6-40.6l0,0c0-2.4-1.9-4.5-4.5-4.5
	C1029.1,901.4,1029.1,901.4,1028.9,901.4z"/>
<path d="M1031.3,721.9c-11.2-9.8-25.5-15-40.6-15c-13.4,0-26.5,4.3-37,12.4l-5.7-7.6c27-20.1,64-18.9,89.5,3.1L1031.3,721.9z"/>
<linearGradient id="SVGID_1_" gradientUnits="userSpaceOnUse" x1="1027.9452" y1="1844.7184" x2="1202.2332" y2="1844.7184" gradientTransform="matrix(1 0 0 1 0 -1106.1102)">
	<stop  offset="0" style="stop-color:#009CDE"/>
	<stop  offset="0.12" style="stop-color:#19A5DF"/>
	<stop  offset="0.73" style="stop-color:#96D1E6"/>
	<stop  offset="1" style="stop-color:#C8E2E8"/>
</linearGradient>
<circle class="st3" cx="1115.1" cy="738.6" r="87.1"/>
<path d="M1115.1,830.5c-50.9,0-91.9-41.1-91.9-91.9s41.1-91.9,91.9-91.9c50.9,0,91.9,41.1,91.9,91.9
	C1207,789.2,1165.7,830.5,1115.1,830.5z M1115.1,656.2c-45.6,0-82.4,37-82.4,82.4s37,82.4,82.4,82.4c45.6,0,82.4-37,82.4-82.4
	C1197.5,693,1160.5,656.2,1115.1,656.2L1115.1,656.2z"/>
<linearGradient id="SVGID_2_" gradientUnits="userSpaceOnUse" x1="782.5097" y1="1844.7184" x2="956.7976" y2="1844.7184" gradientTransform="matrix(1 0 0 1 0 -1106.1102)">
	<stop  offset="0" style="stop-color:#009CDE"/>
	<stop  offset="0.12" style="stop-color:#19A5DF"/>
	<stop  offset="0.73" style="stop-color:#96D1E6"/>
	<stop  offset="1" style="stop-color:#C8E2E8"/>
</linearGradient>
<circle class="st4" cx="869.7" cy="738.6" r="87.1"/>
<path d="M869.7,830.5c-50.9,0-91.9-41.1-91.9-91.9s41.1-91.9,91.9-91.9c50.9,0,91.9,41.1,91.9,91.9
	C961.6,789.2,920.5,830.5,869.7,830.5z M869.7,656.2c-45.6,0-82.4,37-82.4,82.4s37,82.4,82.4,82.4c45.6,0,82.4-37,82.4-82.4
	C952,693,915.3,656.2,869.7,656.2L869.7,656.2z"/>
<path d="M1086.7,1563.5c-22.9-0.2-45.1,8.8-61.1,25.3c-16.2,15.5-25.5,37.2-25.5,59.7c-0.2,22.7,8.8,44.6,25.1,60.6
	c15.5,16.7,37.2,26.3,59.9,26h3.1c22.7,0.2,44.6-9.1,59.9-25.8c16-16,24.8-37.7,24.6-60.4c0.2-22.7-9.1-44.2-25.3-59.9
	C1131.6,1572.3,1109.6,1563,1086.7,1563.5z M1154.5,1649.4c0.2,18.1-6.9,35.6-19.8,48.2c-12.4,13.1-29.6,20.5-47.8,20.3
	c-37.7-0.5-68-30.8-68.8-68.5c0-18.1,7.4-35.8,20.3-48.5c12.4-13.4,30.1-20.8,48.2-20.8c18.1-0.2,35.3,7.4,47.8,20.5
	C1147.6,1613.6,1154.7,1631.1,1154.5,1649.4L1154.5,1649.4z"/>
<path d="M966.3,1696.5c-3.6-3.6-9.3-3.6-12.9,0c-5,5.3-10.7,9.8-17,13.4c-33.2,18.6-75,7.2-93.8-26c-18.6-33.2-7.2-75,26-93.8
	c21-11.9,46.8-11.9,67.8,0c6.2,3.6,11.9,7.9,17,13.1c3.6,3.3,9.3,3.3,12.9,0c3.3-3.3,3.6-8.8,0.2-12.7c-16-17-38.4-26.5-61.6-26.3
	c-23.4-0.5-45.8,8.6-62.3,25.3c-16.5,15.5-25.5,37.2-25.3,59.9c-0.2,22.7,8.8,44.4,25.1,60.4c15.5,16.7,37.2,26,59.9,25.8h3.1
	c23.6,0.2,46.1-9.6,61.8-27l0.2-0.5c1-1.4,1.4-2.9,1.7-4.5v-1.2C968.7,1700.3,967.8,1698.1,966.3,1696.5z"/>
<path d="M1763.1,1584.5c4.5,0,8.4-3.6,8.4-8.4v-0.5c-0.2-4.5-3.8-8.1-8.4-8.1h-39.6v-54.9c-0.2-4.5-3.8-8.1-8.4-8.4h-1.2
	c-4.8,0.2-8.6,4.3-8.6,9.1v157.3c0,18.1,6.2,33.2,18.6,44.9c10.5,10.3,24.4,16.2,39.2,17.2h0.5c4.5-0.2,8.1-3.8,8.1-8.4
	c0.2-4.5-3.3-8.4-7.9-8.6c-10.3-1-19.8-5.3-27-12.7c-8.8-8.6-13.4-20.3-13.1-32.7v-86.2h39.4V1584.5z"/>
<path d="M1964.6,1567.3h-0.7c-4.8,0.2-8.6,4.3-8.8,9.1v19.8c-6.2-8.4-13.8-15.5-22.9-20.5c-13.4-8.1-28.9-12.2-44.4-12.4
	c-22.9-0.2-44.9,8.8-60.9,25.3c-33.4,32.7-33.9,86.4-1.2,119.9c0.5,0.5,0.7,0.7,1.2,1.2c16,16.5,38,25.5,60.9,25.3
	c15.3,0,30.3-4.1,43.7-11.9c9.3-5.5,17.4-12.7,23.9-21.5v20.5c0.2,5,4.3,9.1,9.6,8.8c4.8-0.2,8.6-3.8,8.8-8.6v-145.9
	C1973.4,1571.4,1969.3,1567.3,1964.6,1567.3z M1955.7,1649.4c0.2,18.1-6.9,35.6-19.8,48.5c-12.4,13.1-29.6,20.5-47.8,20.3
	c-37.7-0.5-68-30.8-68.8-68.5c0-18.1,7.4-35.8,20.3-48.5c12.4-13.4,29.8-20.8,48-20.8c18.1-0.2,35.3,7.4,47.8,20.5
	C1948.8,1613.6,1956,1631.1,1955.7,1649.4z"/>
<path class="st0" d="M85.6,1716.1c-10-0.7-19.6-5.3-26.5-12.4c-8.4-8.4-13.1-19.8-12.7-31.8V1472c0-5.7-4.5-10.3-10.3-10.3
	s-10.3,4.5-10.3,10.3v199.8c0,18.4,6.4,33.9,18.9,45.6c11,10.5,25.3,16.7,40.6,17.7h0.2c5-0.2,9.1-4.3,9.1-9.5
	C94.9,1720.6,90.8,1716.3,85.6,1716.1z"/>
<path class="st0" d="M272.3,1566.1h-0.2c-5.5,0.2-10,4.8-10,10.3v16.5c-6-7.4-13.1-13.6-21.2-18.1c-13.6-8.1-29.1-12.4-44.9-12.4
	c-23.2-0.2-45.6,8.8-61.8,25.5c-33.9,33.2-34.4,87.4-1.2,121.3c0.5,0.5,1,1,1.2,1.2c16.2,16.5,38.4,25.8,61.8,25.5
	c15.5,0,30.8-4.1,44.2-11.9c8.6-5,16-11.5,22.2-19.1v17.2c0,5.5,4.5,10,10,10.3h0.2c5.5,0,10-4.5,10-10.3v-145.6
	C282.3,1570.9,277.8,1566.4,272.3,1566.1z M262.5,1649.4c0.2,17.9-6.9,35.1-19.6,47.5c-12.2,12.9-29.1,20.1-47,19.8
	c-37-0.5-67.1-30.3-67.6-67.3c0-17.9,7.2-35.3,20.1-47.8c12.2-13.1,29.4-20.5,47.3-20.3c17.7-0.2,34.9,7.2,47,20.3
	C255.6,1614.1,262.7,1631.3,262.5,1649.4z"/>
<path class="st0" d="M501.5,1562.3c-13.6-0.5-27.2,3.3-38.7,11c-7.4,5-13.4,11.5-17.7,19.3c-4.3-7.4-10-13.8-16.7-18.9
	c-8.8-7.2-19.8-11-31.3-11.2c-10.7,0-21.5,2.9-30.8,8.4c-5,2.6-9.6,6-13.8,9.8v-4.1c0-5.5-4.3-10-10-10.3H342
	c-5.5,0.2-9.8,4.8-9.8,10.3v145.9c0.2,5.5,4.5,9.8,10,10h0.7c5.5-0.2,9.8-4.8,9.8-10.3v-98.8c0-11,4.5-21.5,12.7-29.1
	c7.6-7.9,18.1-12.4,29.4-12.7c10.7-0.2,21.2,4.3,28.7,12.4c7.6,7.9,11.9,18.4,11.9,29.4v98.8c0,5,3.8,9.3,8.8,10h2.9
	c5-0.7,8.6-5,8.8-10v-99.1c0-11,4.8-21.5,12.9-29.1c7.9-8.1,18.6-12.7,29.8-12.7c10.7-0.2,21,4.3,28.4,11.9
	c7.9,8.1,12.2,19.1,11.9,30.3v98.1c0,5.7,4.5,10.3,10.3,10.3c5.7,0,10.3-4.5,10.3-10.3l0,0v-98.1c0-18.6-6-33.7-17.4-44.9
	C531.1,1568.3,516.5,1562.3,501.5,1562.3z"/>
<path class="st0" d="M764.8,1566.1h-0.5c-5.5,0.2-10,4.8-9.8,10.3v16.7c-6-7.4-13.1-13.6-21.2-18.1c-13.6-8.1-29.1-12.4-44.9-12.4
	c-23.2-0.2-45.6,8.8-61.8,25.5c-33.9,33.2-34.4,87.4-1.2,121.3c0.5,0.5,0.7,0.7,1.2,1.2c16.2,16.7,38.7,25.8,61.8,25.5
	c15.5,0,30.8-4.1,44.2-11.9c8.6-5,16-11.5,22.2-19.1v17.2c0,5.5,4.5,10,10,10.3h0.7c5.5-0.2,9.8-4.8,9.8-10.3v-145.6
	C774.9,1570.9,770.3,1566.4,764.8,1566.1z M755.1,1649.4c0.2,17.9-6.9,35.1-19.6,47.5c-12.2,12.9-29.1,20.1-47,19.8
	c-37-0.5-67.1-30.3-67.6-67.3c0-17.9,7.2-35.1,20.1-47.8c12.2-13.1,29.4-20.5,47.3-20.3c17.7-0.2,34.9,7.2,47,20.3
	C748.1,1614.1,755.3,1631.3,755.1,1649.4z"/>
<path d="M1384.4,1563.5c-13.4-0.5-26.7,3.3-38,10.7c-7.9,5.3-14.1,12.4-18.1,20.8c-4.3-7.9-10.3-15-17.4-20.3
	c-8.6-6.9-19.3-10.7-30.6-11c-10.5,0-21,2.9-30.3,8.1c-5.7,3.1-10.7,6.9-15.5,11.5v-7.2c-0.2-4.3-3.6-7.9-7.9-8.4h-2.4
	c-4.5,0.7-7.9,4.5-7.9,9.1v145.6c0,4.5,3.6,8.6,8.1,9.1h2.1c4.3-0.5,7.6-4.1,8.1-8.4v-99.8c0.7-23.4,19.6-42.3,43-42.7
	c11.2-0.2,22,4.5,29.4,12.7c7.9,7.9,12.4,18.9,12.2,30.1v99.1c0,4.8,3.8,8.8,8.8,9.1h0.7c4.8-0.2,8.6-4.1,8.8-8.8v-99.1
	c0-11.5,4.8-22.2,13.4-29.8c8.1-8.4,19.1-12.9,30.6-12.9c11-0.2,21.7,4.3,29.1,12.2c8.1,8.1,12.7,19.3,12.2,31v98.8
	c0.5,4.5,4.1,8.1,8.8,8.4h0.7c4.8-0.2,8.6-4.3,8.6-9.1v-98.6c0-18.4-5.7-33.2-17.2-43.9C1413.5,1569.2,1399.2,1563.3,1384.4,1563.5z
	"/>
<path d="M1579,1563.5c-15.3,0-30.3,4.3-43.5,11.9c-9.3,5.3-17.7,12.4-24.1,21v-20.1c0-5-3.8-8.8-8.8-9.1h-1
	c-4.8,0.2-8.6,4.3-8.6,9.1v215.1c0,4.8,3.6,8.6,8.4,9.1h1.4c4.5-0.2,8.1-3.8,8.4-8.4v-90.7c6.7,8.8,15.3,16,24.8,21.5
	c12.9,7.6,27.5,11.7,42.5,11.7c47.3,0,85.7-38.4,85.7-85.7C1664.7,1601.7,1626.5,1563.5,1579,1563.5L1579,1563.5L1579,1563.5z
	 M1647,1649.4c0.2,18.1-6.9,35.6-19.8,48.2c-12.4,13.1-29.6,20.5-47.8,20.3c-37.7-0.5-68-30.8-68.8-68.5c0-18.1,7.2-35.8,20.3-48.5
	c12.4-13.4,29.8-20.8,48-20.8c18.1-0.2,35.3,7.4,47.8,20.5C1639.9,1613.6,1647.3,1631.1,1647,1649.4L1647,1649.4z"/>
</svg>
