<svg xmlns="http://www.w3.org/2000/svg"
    xmlns:xlink="http://www.w3.org/1999/xlink" viewBox="0 0 815.72 670.91">
    <defs>
        <style>.cls-1{fill:#009cde;}.cls-2{fill:#fff;}.cls-3{fill:#c8e2e8;}.cls-4{fill:url(#linear-gradient);}.cls-5{fill:url(#linear-gradient-2);}</style>
        <linearGradient id="linear-gradient" x1="422.69" y1="226.04" x2="495.71" y2="226.04" gradientUnits="userSpaceOnUse">
            <stop offset="0" stop-color="#009cde"/>
            <stop offset="0.12" stop-color="#19a5df"/>
            <stop offset="0.73" stop-color="#96d1e6"/>
            <stop offset="1" stop-color="#c8e2e8"/>
        </linearGradient>
        <linearGradient id="linear-gradient-2" x1="319.87" y1="226.04" x2="392.88" y2="226.04" xlink:href="#linear-gradient"/>
    </defs>
    <g id="Calque_2" data-name="Calque 2">
        <g id="logos">
            <circle class="cls-1" cx="407.86" cy="249.57" r="249.57"/>
            <path class="cls-2" d="M506.77,163.31l33.14-33.15a29.5,29.5,0,0,0,0-41.73l-.42-.42a29.51,29.51,0,0,0-41.73,0L464,121.73a110.8,110.8,0,0,0-53.42-13.64h-2.25a110.77,110.77,0,0,0-53.44,13.65L321.47,88.29a29.5,29.5,0,0,0-41.73,0l-.42.42a29.51,29.51,0,0,0,0,41.73l32.89,32.89a110.73,110.73,0,0,0-15.13,56.06V474.32a250.17,250.17,0,0,0,224.84-1.64V219.39A110.82,110.82,0,0,0,506.77,163.31Z"/>
            <path class="cls-1" d="M497.06,109.57l7.86-8a13.55,13.55,0,0,1,19.16-.11l.2.19a13.55,13.55,0,0,1,.11,19.16l-26.91,27.23-.19-.19A27.09,27.09,0,0,1,497.06,109.57Z"/>
            <path class="cls-1" d="M319.53,109.57l-7.86-8a13.55,13.55,0,0,0-19.16-.11l-.2.19a13.55,13.55,0,0,0-.11,19.16l26.91,27.23.19-.19A27.09,27.09,0,0,0,319.53,109.57Z"/>
            <path class="cls-1" d="M367,389a9.67,9.67,0,0,1-1.53-.12c-6.09-1-9-7.53-10.87-11.87-.28-.64-.54-1.23-.79-1.74l-.56-1.19c-.63-1.34-1.34-2.85-1.66-2.95s-2.13.56-3.93,1.3l-1.63.66c-8.85,3.75-14.5,4-17.24.83-5.54-6.44,5.24-24.36,6.48-26.38a1.5,1.5,0,0,1,2.56,1.57c-4.27,6.92-9.87,19.24-6.77,22.86,1.71,2,6.62,1.4,13.83-1.66l1.63-.66c6.27-2.56,7-2,9.45,3.15l.55,1.18c.26.53.53,1.15.83,1.82,1.64,3.74,4.12,9.4,8.6,10.12,4.16.67,9.68-2.78,16.39-10.25a1.5,1.5,0,1,1,2.23,2C377.7,385.3,371.93,389,367,389Z"/>
            <path class="cls-1" d="M470.4,427.64h-.47c-7.38-.26-12.95-6.83-14.73-10.92a7.89,7.89,0,0,0-5.09-4.8c-2.69-.72-5.88.13-9,2.4-4.9,3.89-9.71,5.14-14.23,3.66-10.54-3.45-15.35-20.6-15.55-21.33a1.5,1.5,0,0,1,2.89-.8c.05.17,4.59,16.34,13.59,19.28,3.51,1.14,7.37.07,11.48-3.2,3.9-2.85,8-3.87,11.58-2.9a10.78,10.78,0,0,1,7.06,6.49c1.59,3.67,6.4,8.92,12.08,9.12,5.88.2,11.74-4.94,16.93-14.87a1.5,1.5,0,0,1,2.66,1.39C483.9,422.1,477.44,427.64,470.4,427.64Z"/>
            <path class="cls-1" d="M352.18,470.77h-.28c-9.18-.26-15.43-13.81-15.69-14.39a1.5,1.5,0,0,1,2.73-1.24c.06.13,5.74,12.43,13.05,12.64h.18c4,0,8-3.71,11.81-11a11.67,11.67,0,0,1,7.69-6.63,13.81,13.81,0,0,1,11.62,2.39c2.54,1.83,8.06,3.39,11.86.93,4.6-3,5.66-11.11,3.08-23.49a1.5,1.5,0,0,1,2.94-.61c2.89,13.89,1.42,22.84-4.39,26.61-5,3.27-11.94,1.38-15.24-1a11,11,0,0,0-9.1-1.92,8.65,8.65,0,0,0-5.76,5C362.24,466.52,357.37,470.77,352.18,470.77Z"/>
            <path class="cls-1" d="M451.22,365.92c-2.37,0-8.38-1-15.48-10.08a1.51,1.51,0,0,1,.26-2.11,1.49,1.49,0,0,1,2.1.26c2.18,2.77,8.86,9.76,13.61,8.9,2.14-.39,3.83-2.48,5-6.21,1.38-4.61,4.56-7.14,8.28-6.62h.12c2.73.39,7.3,1.05,9.3-1.45,1.41-1.77,2.27-6-1.64-16.23a1.5,1.5,0,0,1,2.8-1.07c3.6,9.39,4,15.66,1.18,19.18-3.06,3.84-8.7,3-12.07,2.54h-.11c-2.19-.33-4.05,1.38-5,4.54-1.55,4.89-4,7.67-7.34,8.28A6.87,6.87,0,0,1,451.22,365.92Z"/>
            <path class="cls-3" d="M333.65,259.34c0,42.06,32.45,75.08,74.51,75.08s74.5-35.18,74.5-77.24V228.52L424,216.33l-16.86-5.54-15.76,4.86-58.32,12.87Z"/>
            <rect class="cls-1" x="379.72" y="247.28" width="56.39" height="76.29" rx="27.91"/>
            <path d="M423.16,294.23a1.9,1.9,0,0,0-1.9,1.89,13.19,13.19,0,0,1-8,12.11h0l-.74.28c-2.45.75-2.68-1.16-2.7-1.69V282.12h0s-.07-1.71,1.32-2h0a12.08,12.08,0,0,0,8.87-9.76,6.37,6.37,0,0,0,.17-1.39,2.28,2.28,0,0,0,0-.26,2.45,2.45,0,0,0,0-.27h0a6,6,0,0,0-2.4-4.31h0l-.28-.19-.19-.12a16.8,16.8,0,0,0-18.62.09h0a6.06,6.06,0,0,0-2.47,6.82,12.1,12.1,0,0,0,9.13,9.48h0a1.83,1.83,0,0,1,1,1.63v24.89c0,.39-.15,2.55-2.75,1.75l-.69-.25-.05,0a13.22,13.22,0,0,1-8-12.12,1.9,1.9,0,0,0-3.79,0,17,17,0,1,0,34,0A1.89,1.89,0,0,0,423.16,294.23Z"/>
            <path d="M424.08,219.09A25.94,25.94,0,0,0,391.61,218l-2.4-3.2a29.93,29.93,0,0,1,37.48,1.31Z"/>
            <circle class="cls-4" cx="459.2" cy="226.04" r="36.51"/>
            <path d="M459.2,264.55A38.51,38.51,0,1,1,497.71,226,38.56,38.56,0,0,1,459.2,264.55Zm0-73A34.51,34.51,0,1,0,493.71,226,34.55,34.55,0,0,0,459.2,191.53Z"/>
            <circle class="cls-5" cx="356.38" cy="226.04" r="36.51"/>
            <path d="M356.38,264.55A38.51,38.51,0,1,1,394.88,226,38.55,38.55,0,0,1,356.38,264.55Zm0-73A34.51,34.51,0,1,0,390.88,226,34.55,34.55,0,0,0,356.38,191.53Z"/>
            <path class="cls-2" d="M444.32,571.55a35.2,35.2,0,0,0-25.62,10.56,34.27,34.27,0,0,0-10.65,25,35.43,35.43,0,0,0,10.48,25.31,33.83,33.83,0,0,0,25.13,10.88H445a33.63,33.63,0,0,0,25.14-10.81,35.58,35.58,0,0,0,10.33-25.31,34.47,34.47,0,0,0-10.57-25.11A34.94,34.94,0,0,0,444.32,571.55Zm28.45,36a28.09,28.09,0,0,1-8.32,20.24,27,27,0,0,1-20,8.51,29.12,29.12,0,0,1-28.75-28.67,28.15,28.15,0,0,1,8.54-20.31,27.43,27.43,0,0,1,20.14-8.66,27.11,27.11,0,0,1,20,8.58A28.25,28.25,0,0,1,472.77,607.52Z"/>
            <path class="cls-2" d="M393.91,627.29a3.88,3.88,0,0,0-5.43,0,31.82,31.82,0,0,1-7.15,5.56A27.53,27.53,0,0,1,347.56,628a28.41,28.41,0,0,1,0-40.59,27.52,27.52,0,0,1,33.77-4.79,31.83,31.83,0,0,1,7.14,5.51,3.89,3.89,0,0,0,5.39,0,3.85,3.85,0,0,0,.12-5.26,35,35,0,0,0-25.83-11A35.77,35.77,0,0,0,342,582.41a34.3,34.3,0,0,0-10.65,25.11,35.32,35.32,0,0,0,10.48,25.32A34,34,0,0,0,367,643.65h1.31a34.23,34.23,0,0,0,25.9-11.27l.13-.16a3.84,3.84,0,0,0,.69-1.89v-.65A3.91,3.91,0,0,0,393.91,627.29Z"/>
            <path class="cls-2" d="M727.64,580.38a3.54,3.54,0,0,0,3.53-3.46v-.24a3.52,3.52,0,0,0-3.53-3.38H711.06v-23a3.8,3.8,0,0,0-3.54-3.53H707a3.85,3.85,0,0,0-3.57,3.82v65.9c0,7.59,2.61,13.91,7.76,18.8a26,26,0,0,0,16.4,7.24h.17A3.52,3.52,0,0,0,731.1,639a3.47,3.47,0,0,0-3.33-3.57,17.83,17.83,0,0,1-11.26-5.3,18.21,18.21,0,0,1-5.45-13.65V580.38Z"/>
            <path class="cls-2" d="M812,573.15h-.29a3.83,3.83,0,0,0-3.65,3.82v8.33a30.14,30.14,0,0,0-9.63-8.59,36.6,36.6,0,0,0-18.61-5.16,35.12,35.12,0,0,0-25.55,10.56,35.49,35.49,0,0,0,0,50.68,35.12,35.12,0,0,0,25.55,10.56,35.55,35.55,0,0,0,18.26-5,32.84,32.84,0,0,0,10-9v8.6a3.83,3.83,0,0,0,7.65.12V577A3.84,3.84,0,0,0,812,573.15Zm-3.65,34.37A28.13,28.13,0,0,1,800,627.76a27,27,0,0,1-20,8.51,29.12,29.12,0,0,1-28.75-28.67,28.18,28.18,0,0,1,8.53-20.31A27.46,27.46,0,0,1,780,578.63a27.11,27.11,0,0,1,20,8.58A28.25,28.25,0,0,1,808.35,607.52Z"/>
            <path class="cls-2" d="M25,635.44a17.74,17.74,0,0,1-11.14-5.18,18,18,0,0,1-5.32-13.33V533.25a4.29,4.29,0,0,0-8.58,0v83.68c0,7.71,2.66,14.15,7.9,19.13a26.53,26.53,0,0,0,17,7.38H25a4,4,0,0,0,3.82-4A4,4,0,0,0,25,635.44Z"/>
            <path class="cls-2" d="M103.18,572.69h-.13A4.31,4.31,0,0,0,98.84,577v6.94a31.07,31.07,0,0,0-8.94-7.61,37.16,37.16,0,0,0-18.84-5.22,35.55,35.55,0,0,0-25.87,10.7,35.91,35.91,0,0,0,0,51.32,35.53,35.53,0,0,0,25.87,10.7,36,36,0,0,0,18.49-5.08,33.28,33.28,0,0,0,9.29-8v7.23a4.32,4.32,0,0,0,4.23,4.29h.15a4.27,4.27,0,0,0,4.2-4.26V577A4.31,4.31,0,0,0,103.18,572.69Zm-4.05,34.83a27.69,27.69,0,0,1-8.19,19.92,26.58,26.58,0,0,1-19.66,8.37,27.3,27.3,0,0,1-19.9-8.39A27.22,27.22,0,0,1,43,607.6a27.7,27.7,0,0,1,8.4-20,27,27,0,0,1,19.81-8.52,26.68,26.68,0,0,1,19.67,8.44A27.81,27.81,0,0,1,99.13,607.52Z"/>
            <path class="cls-2" d="M199.19,571.09A28.16,28.16,0,0,0,183,575.66a22.92,22.92,0,0,0-7.38,8.07,26.71,26.71,0,0,0-7-8,21.49,21.49,0,0,0-13.07-4.69,26.3,26.3,0,0,0-12.9,3.45,31.15,31.15,0,0,0-5.77,4.08V577a4.3,4.3,0,0,0-4.16-4.28h-.32a4.29,4.29,0,0,0-4.1,4.28V638a4.31,4.31,0,0,0,4.18,4.18h.27a4.27,4.27,0,0,0,4.13-4.28V596.52a16.79,16.79,0,0,1,5.26-12.18,17,17,0,0,1,12.32-5.25,16.08,16.08,0,0,1,12,5.16,17.18,17.18,0,0,1,5,12.27V638a4.3,4.3,0,0,0,3.69,4.23l1,0,.22,0A4.29,4.29,0,0,0,180,638V596.52a16.48,16.48,0,0,1,5.44-12.15,17.58,17.58,0,0,1,12.5-5.28,16.26,16.26,0,0,1,11.94,5,17.39,17.39,0,0,1,5,12.69v41.11a4.29,4.29,0,0,0,8.58,0V596.81c0-7.81-2.46-14.12-7.31-18.76A23.86,23.86,0,0,0,199.19,571.09Z"/>
            <path class="cls-2" d="M309.49,572.69h-.23a4.27,4.27,0,0,0-4.15,4.28v6.95a31.07,31.07,0,0,0-8.94-7.61,37.16,37.16,0,0,0-18.84-5.22,35.55,35.55,0,0,0-25.87,10.7,35.93,35.93,0,0,0,0,51.32,35.55,35.55,0,0,0,25.87,10.7,36,36,0,0,0,18.49-5.08,33.28,33.28,0,0,0,9.29-8v7.24a4.29,4.29,0,0,0,4.17,4.28h.31a4.28,4.28,0,0,0,4.1-4.28V577A4.28,4.28,0,0,0,309.49,572.69Zm-4.09,34.83a27.65,27.65,0,0,1-8.19,19.92,26.58,26.58,0,0,1-19.66,8.37,28.65,28.65,0,0,1-28.29-28.21,27.74,27.74,0,0,1,8.4-20,27,27,0,0,1,19.82-8.52,26.66,26.66,0,0,1,19.66,8.44A27.81,27.81,0,0,1,305.4,607.52Z"/>
            <path class="cls-2" d="M569,571.55A27.68,27.68,0,0,0,553.1,576a22.34,22.34,0,0,0-7.63,8.65,26.14,26.14,0,0,0-7.32-8.54,21,21,0,0,0-12.78-4.6,25.84,25.84,0,0,0-12.68,3.39,29.62,29.62,0,0,0-6.45,4.75v-3a3.81,3.81,0,0,0-3.3-3.51h-1.05a3.85,3.85,0,0,0-3.31,3.8v61a3.84,3.84,0,0,0,3.39,3.8h.89a3.84,3.84,0,0,0,3.38-3.51V596.52a18.42,18.42,0,0,1,18-17.89,16.35,16.35,0,0,1,12.33,5.3,17.42,17.42,0,0,1,5.12,12.59V638a3.86,3.86,0,0,0,3.71,3.78h.33a3.85,3.85,0,0,0,3.62-3.68V596.52A16.71,16.71,0,0,1,555,584a17.81,17.81,0,0,1,12.81-5.41,16.47,16.47,0,0,1,12.27,5.17,17.6,17.6,0,0,1,5.11,13v41.41a3.87,3.87,0,0,0,3.69,3.53h.35a3.84,3.84,0,0,0,3.62-3.83V596.81c0-7.68-2.41-13.88-7.17-18.43A23.42,23.42,0,0,0,569,571.55Z"/>
            <path class="cls-2" d="M650.52,571.55a36.09,36.09,0,0,0-18.17,5,32.49,32.49,0,0,0-10.07,8.79V577a3.85,3.85,0,0,0-3.7-3.82h-.36a3.84,3.84,0,0,0-3.61,3.82v90.11a3.87,3.87,0,0,0,3.54,3.82h.62a3.81,3.81,0,0,0,3.5-3.51v-38a34.44,34.44,0,0,0,10.44,9,35.72,35.72,0,0,0,17.8,4.93,35.9,35.9,0,1,0,0-71.8Zm28.53,36a28.13,28.13,0,0,1-8.32,20.24,27,27,0,0,1-20,8.51A29.1,29.1,0,0,1,622,607.6a28.18,28.18,0,0,1,8.53-20.31,27.45,27.45,0,0,1,20.14-8.66,27.13,27.13,0,0,1,20,8.58A28.29,28.29,0,0,1,679.05,607.52Z"/>
        </g>
    </g>
</svg>
