<?xml version="1.0" encoding="utf-8"?>
<!-- Generator: Adobe Illustrator 19.0.0, SVG Export Plug-In . SVG Version: 6.00 Build 0)  -->
<svg version="1.1" id="Calque_1"
    xmlns="http://www.w3.org/2000/svg"
    xmlns:xlink="http://www.w3.org/1999/xlink" x="0px" y="0px" viewBox="0 0 1881.1 379.7" enable-background="new 0 0 1881.1 379.7" xml:space="preserve">
    <g>
        <path fill="#FFFFFF" d="M1253.2,156.7c-16.8,0-31.4,6-43.3,17.9c-11.9,11.9-18,26.1-18,42.3c0,16.2,6,30.6,17.7,42.8
		c11.8,12.2,26.1,18.4,42.5,18.4h2.2c16.6,0,30.9-6.1,42.5-18.3c11.6-12.1,17.5-26.5,17.5-42.8c0-16.3-6-30.6-17.9-42.5
		C1284.5,162.7,1270,156.7,1253.2,156.7z M1301.3,217.5c0,13.1-4.7,24.6-14.1,34.2c-9.3,9.6-20.7,14.4-33.8,14.4
		c-13.1,0-24.6-4.9-34.2-14.4c-9.6-9.6-14.4-21-14.4-34.1c0-13,4.9-24.6,14.4-34.3c9.6-9.7,21-14.6,34.1-14.6
		c13,0,24.4,4.9,33.8,14.5C1296.5,192.8,1301.3,204.3,1301.3,217.5z"/>
        <path fill="#FFFFFF" d="M1167.9,250.9c-2.5-2.5-6.7-2.6-9.2-0.1c-3.6,3.7-7.6,6.9-12.1,9.4c-7.4,4.2-15.2,6.3-23.3,6.3
		c-12.9,0-24.3-4.8-33.8-14.4c-9.6-9.6-14.4-21.1-14.4-34.3c0-13.2,4.8-24.7,14.4-34.3c9.6-9.6,20.9-14.4,33.8-14.4
		c8.1,0,15.9,2.1,23.3,6.3c4.4,2.5,8.5,5.7,12.1,9.3c2.4,2.4,6.7,2.4,9.1,0c2.4-2.4,2.5-6.2,0.2-8.9c-12.1-12.4-26.8-18.7-43.7-18.7
		c-17.4,0-32.2,6-44.2,17.9c-11.9,11.9-18,26.1-18,42.5c0,16.3,6,30.7,17.7,42.8c11.8,12.1,26.1,18.3,42.5,18.3h2.2
		c17.2,0,32-6.4,43.8-19l0.2-0.3c0.7-0.9,1.1-2,1.2-3.2l0-0.1l0-1C1169.7,253.4,1169,252,1167.9,250.9z"/>
        <path fill="#FFFFFF" d="M1732.1,171.6c3.2,0,5.8-2.5,6-5.8l0-0.4c-0.1-3.2-2.8-5.7-6-5.7h-28v-38.7l0-0.2c-0.2-3.2-2.8-5.7-6-6
		l-0.1,0l-0.8,0c-3.4,0.2-6,3.1-6,6.5v111.4c0,12.8,4.4,23.5,13.1,31.8c7.7,7.3,17.1,11.5,27.7,12.2l0.1,0l0.1,0
		c3.2-0.1,5.7-2.8,5.7-6c0-3.3-2.5-6-5.6-6c-7.4-0.7-13.6-3.6-19-9c-6.2-6.1-9.2-13.7-9.2-23.1v-61H1732.1z"/>
        <path fill="#FFFFFF" d="M1874.8,159.4l-0.5,0c-3.5,0.2-6.2,3-6.2,6.5v14.1c-4-5.7-9.5-10.6-16.3-14.5c-10-5.8-20.5-8.7-31.5-8.7
		c-16.7,0-31.3,6-43.2,17.9c-11.9,11.9-18,26.3-18,42.8c0,16.6,6.1,31,18,42.8c11.9,11.9,26.5,17.9,43.2,17.9
		c10.9,0,21.3-2.9,30.9-8.5c6.8-4,12.5-9.1,16.9-15.2l0,14.5c0,3.5,2.9,6.4,6.5,6.5c3.4,0,6.2-2.7,6.4-6.3V165.8
		C1881.1,162.4,1878.4,159.5,1874.8,159.4z M1868.6,217.5c0,13.1-4.7,24.6-14.1,34.2c-9.3,9.6-20.7,14.4-33.8,14.4
		c-13.1,0-24.6-4.9-34.2-14.4c-9.6-9.6-14.4-21-14.4-34.1c0-13,4.9-24.6,14.4-34.3c9.6-9.7,21-14.6,34.1-14.6
		c13,0,24.4,4.9,33.8,14.5C1863.8,192.8,1868.6,204.3,1868.6,217.5z"/>
        <path fill="#FFFFFF" d="M544.3,264.7c-7.3-0.6-13.6-3.6-18.8-8.8c-6-5.9-9-13.5-9-22.5V91.9c0-4-3.3-7.3-7.3-7.3s-7.3,3.3-7.3,7.3
		v141.5c0,13,4.5,23.9,13.4,32.3c8,7.6,17.6,11.8,28.7,12.5l0.1,0l0.1,0c3.6-0.1,6.5-3.1,6.5-6.7
		C550.8,267.9,547.9,264.8,544.3,264.7z"/>
        <path fill="#FFFFFF" d="M676.4,158.6h-0.2c-3.9,0.1-7.1,3.3-7.1,7.2v11.7c-3.9-5-9-9.3-15.1-12.9c-10.1-5.9-20.8-8.8-31.9-8.8
		c-16.9,0-31.6,6.1-43.7,18.1c-12.1,12-18.2,26.6-18.2,43.4c0,16.8,6.1,31.4,18.2,43.4c12.1,12,26.8,18.1,43.7,18.1
		c11.1,0,21.6-2.9,31.3-8.6c6.2-3.6,11.4-8.2,15.7-13.6l0,12.2c0,3.9,3.2,7.2,7.2,7.2h0.3c3.9-0.1,7.1-3.2,7.1-7.2V165.8
		C683.6,161.9,680.4,158.7,676.4,158.6z M669.6,217.5c0,12.9-4.7,24.3-13.8,33.7c-9.2,9.4-20.3,14.2-33.2,14.2
		c-12.9,0-24.2-4.8-33.6-14.2c-9.4-9.4-14.2-20.7-14.2-33.5c0-12.8,4.8-24.2,14.2-33.8c9.4-9.6,20.7-14.4,33.5-14.4
		c12.8,0,24,4.8,33.2,14.3C664.9,193.2,669.6,204.6,669.6,217.5z"/>
        <path fill="#FFFFFF" d="M838.8,155.9c-10.7,0-19.9,2.6-27.4,7.7c-5.4,3.7-9.5,8.2-12.5,13.6c-3-5.2-7-9.8-11.9-13.4
		c-7-5.3-14.4-7.9-22.1-7.9c-7.5,0-14.9,2-21.8,5.8c-3.7,2.1-7,4.4-9.7,6.9v-2.8c0-3.9-3-7.1-7-7.2l-0.5,0c-3.9,0.2-6.9,3.3-6.9,7.2
		l0,103.2c0.1,3.8,3.1,6.9,7.1,7.1l0.5,0c3.9-0.2,7-3.3,7-7.2l0-70c0-7.8,3-14.7,8.9-20.6c5.9-5.9,12.9-8.9,20.8-8.9
		c7.9,0,14.7,2.9,20.3,8.7c5.6,5.8,8.4,12.8,8.4,20.7l0,70.1c0,3.6,2.7,6.7,6.2,7.2l1.7,0l0.4,0c3.5-0.5,6.1-3.4,6.2-7v-70.2
		c0-7.7,3.1-14.6,9.2-20.5c6.1-5.9,13.3-8.9,21.1-8.9c7.8,0,14.6,2.9,20.2,8.5c5.6,5.7,8.4,12.9,8.4,21.5l0,69.5
		c0,4,3.3,7.3,7.3,7.3s7.3-3.3,7.3-7.3v-69.5c0-13.2-4.2-23.9-12.4-31.7C859.3,159.8,849.6,155.9,838.8,155.9z"/>
        <path fill="#FFFFFF" d="M1025.2,158.6l-0.4,0c-3.9,0.1-7,3.3-7,7.2v11.7c-3.9-5-9-9.3-15.1-12.9c-10.1-5.9-20.8-8.8-31.9-8.8
		c-16.9,0-31.6,6.1-43.7,18.1c-12.1,12-18.2,26.6-18.2,43.4c0,16.8,6.1,31.4,18.2,43.4c12.1,12,26.8,18.1,43.7,18.1
		c11.1,0,21.6-2.9,31.3-8.6c6.2-3.6,11.4-8.2,15.7-13.6v12.2c0,3.9,3,7.1,7,7.2l0.5,0c3.9-0.2,6.9-3.3,6.9-7.2V165.8
		C1032.3,161.9,1029.2,158.7,1025.2,158.6z M1018.3,217.5c0,12.9-4.7,24.3-13.8,33.7c-9.2,9.4-20.3,14.2-33.2,14.2
		c-12.9,0-24.2-4.8-33.6-14.2c-9.4-9.4-14.2-20.7-14.2-33.5c0-12.8,4.8-24.2,14.2-33.8c9.4-9.6,20.7-14.4,33.5-14.4
		c12.8,0,24,4.8,33.2,14.3C1013.6,193.2,1018.3,204.6,1018.3,217.5z"/>
        <path fill="#FFFFFF" d="M1464,156.7c-10.5,0-19.6,2.6-26.9,7.6c-5.7,3.9-10,8.8-12.9,14.6c-3.1-5.7-7.2-10.5-12.4-14.4
		c-6.8-5.2-14.1-7.8-21.6-7.8c-7.4,0-14.6,1.9-21.4,5.7c-4.3,2.4-7.9,5.1-10.9,8v-4.9l0-0.2c-0.2-3.1-2.5-5.5-5.6-5.9l-1.4,0l-0.3,0
		c-3.2,0.4-5.6,3.2-5.6,6.4v103.1c0,3.3,2.5,6,5.7,6.4l1.2,0l0.3,0c3.1-0.4,5.5-2.9,5.7-5.9l0-70.5c0-8.1,3-15,9.1-21.1
		c6.1-6.1,13.1-9.1,21.4-9.1c8.2,0,15,2.9,20.8,9c5.8,6.1,8.7,13,8.7,21.3v70.1c0,3.4,2.7,6.2,6.3,6.4l0.6,0
		c3.3-0.2,5.9-2.8,6.1-6.2v-70.3c0-8.1,3.1-15,9.5-21.1c6.4-6.2,13.5-9.1,21.7-9.1c8.2,0,14.9,2.9,20.7,8.7c5.8,5.9,8.6,13.1,8.6,22
		v69.8l0,0.2c0.2,3.2,2.9,5.8,6.2,6h0.5l0.1,0c3.4-0.2,6.1-3,6.1-6.5v-69.5c0-13-4.1-23.5-12.1-31.2
		C1484.1,160.5,1474.6,156.7,1464,156.7z"/>
        <path fill="#FFFFFF" d="M1601.8,156.7c-10.6,0-20.9,2.8-30.7,8.5c-6.9,4-12.6,9-17,14.9v-14.2c0-3.4-2.7-6.3-6.2-6.5l-0.6,0
		c-3.4,0.2-6.1,3-6.1,6.5v152.3c0,3.3,2.6,6.2,6,6.5l0.9,0l0.1,0c3.2-0.3,5.7-2.8,5.9-5.9l0-64.2c4.7,6.1,10.6,11.2,17.7,15.2
		c9.7,5.5,19.8,8.3,30.1,8.3c16.9,0,31.5-6,43.3-17.9c11.9-11.9,17.9-26.3,17.9-42.8c0-16.6-6-31-17.9-42.8
		C1633.2,162.7,1618.6,156.7,1601.8,156.7z M1650,217.5c0,13.1-4.7,24.6-14.1,34.2c-9.3,9.6-20.7,14.4-33.8,14.4
		c-13.1,0-24.6-4.9-34.2-14.4c-9.6-9.6-14.4-21-14.4-34.1c0-13,4.9-24.6,14.4-34.3c9.6-9.7,21-14.6,34.1-14.6
		c13,0,24.4,4.9,33.8,14.5C1645.2,192.8,1650,204.3,1650,217.5z"/>
    </g>
    <g>
        <g>
            <g>
                <circle id="XMLID_19_" fill="#169BD8" cx="189.5" cy="189.5" r="189.5"/>
            </g>
        </g>
        <g>
            <path fill="#FFFFFF" d="M264.5,124l25.2-25.2c8.7-8.7,8.7-22.9,0-31.7l-0.3-0.3c-8.7-8.7-22.9-8.7-31.7,0l-25.6,25.6
			c-12-6.6-25.9-10.4-40.6-10.4h-1.7c-14.7,0-28.5,3.8-40.6,10.4L123.9,67c-8.7-8.7-22.9-8.7-31.7,0l-0.3,0.3
			c-8.7,8.7-8.7,22.9,0,31.7l25,25c-7.3,12.5-11.5,27-11.5,42.6v193.5c25.3,12.6,53.9,19.6,84.1,19.6c31.2,0,60.6-7.5,86.6-20.9
			V166.5C276,151,271.8,136.5,264.5,124z"/>
            <path fill="#169BD8" d="M257.2,83.2l6-6c4-4,10.5-4.1,14.5-0.1l0.1,0.1c4,4,4.1,10.5,0.1,14.5l-20.4,20.7l-0.1-0.1
			C249.3,104.3,249.2,91.3,257.2,83.2z"/>
            <path fill="#169BD8" d="M122.4,83.2l-6-6c-4-4-10.5-4.1-14.5-0.1l-0.1,0.1c-4,4-4.1,10.5-0.1,14.5l20.4,20.7l0.1-0.1
			C130.3,104.3,130.4,91.3,122.4,83.2z"/>
            <path fill="#169BD8" d="M158.4,295.3c-0.4,0-0.8,0-1.2-0.1c-4.6-0.7-6.8-5.7-8.3-9c-0.2-0.5-0.4-0.9-0.6-1.3L148,284
			c-0.5-1-1-2.2-1.3-2.2c-0.3-0.1-1.6,0.4-3,1c-0.4,0.2-0.8,0.3-1.2,0.5c-6.7,2.8-11,3.1-13.1,0.6c-4.2-4.9,4-18.5,4.9-20
			c0.3-0.5,1-0.7,1.6-0.4c0.5,0.3,0.7,1,0.4,1.6c-3.2,5.3-7.5,14.6-5.1,17.3c1.3,1.5,5,1.1,10.5-1.3c0.5-0.2,0.9-0.4,1.2-0.5
			c4.8-1.9,5.3-1.5,7.2,2.4l0.4,0.9c0.2,0.4,0.4,0.9,0.6,1.4c1.2,2.8,3.1,7.1,6.5,7.7c3.2,0.5,7.3-2.1,12.4-7.8
			c0.4-0.5,1.1-0.5,1.6-0.1c0.5,0.4,0.5,1.1,0.1,1.6C166.6,292.5,162.2,295.3,158.4,295.3z"/>
            <path fill="#169BD8" d="M236.9,324.6c-0.1,0-0.2,0-0.4,0c-5.6-0.2-9.8-5.2-11.2-8.3c-0.8-1.9-2.2-3.2-3.9-3.6
			c-2-0.6-4.5,0.1-6.8,1.8c-3.7,3-7.4,3.9-10.8,2.8c-8-2.6-11.7-15.6-11.8-16.2c-0.2-0.6,0.2-1.2,0.8-1.4c0.6-0.2,1.2,0.2,1.4,0.8
			c0,0.1,3.5,12.4,10.3,14.6c2.7,0.9,5.6,0.1,8.7-2.4c3-2.2,6.1-2.9,8.8-2.2c2.4,0.6,4.2,2.3,5.4,4.9c1.2,2.8,4.9,6.8,9.2,6.9
			c4.5,0.2,8.9-3.7,12.9-11.3c0.3-0.6,1-0.8,1.5-0.5c0.6,0.3,0.8,1,0.5,1.5C247.2,320.4,242.3,324.6,236.9,324.6z"/>
            <path fill="#169BD8" d="M147.2,357.4c-0.1,0-0.1,0-0.2,0c-7-0.2-11.7-10.5-11.9-10.9c-0.3-0.6,0-1.2,0.6-1.5
			c0.6-0.3,1.2,0,1.5,0.6c0,0.1,4.4,9.4,9.9,9.6c0,0,0.1,0,0.1,0c3,0,6-2.8,9-8.4c1.1-2.5,3.2-4.3,5.8-5c2.9-0.8,6.1-0.1,8.8,1.8
			c1.9,1.4,6.1,2.6,9,0.7c3.5-2.3,4.3-8.4,2.3-17.8c-0.1-0.6,0.3-1.2,0.9-1.3c0.6-0.1,1.2,0.3,1.3,0.9c2.2,10.5,1.1,17.3-3.3,20.2
			c-3.8,2.5-9.1,1-11.6-0.8c-2.1-1.5-4.7-2.1-6.9-1.5c-2,0.5-3.5,1.9-4.4,3.8C154.8,354.2,151.1,357.4,147.2,357.4z"/>
            <path fill="#169BD8" d="M222.4,277.8c-1.8,0-6.4-0.8-11.7-7.7c-0.4-0.5-0.3-1.2,0.2-1.6c0.5-0.4,1.2-0.3,1.6,0.2
			c1.7,2.1,6.7,7.4,10.3,6.8c1.6-0.3,2.9-1.9,3.8-4.7c1.1-3.5,3.5-5.4,6.3-5l0.1,0c2.1,0.3,5.5,0.8,7.1-1.1
			c1.1-1.3,1.7-4.6-1.2-12.3c-0.2-0.6,0.1-1.2,0.7-1.5c0.6-0.2,1.2,0.1,1.5,0.7c2.7,7.1,3,11.9,0.9,14.6c-2.3,2.9-6.6,2.3-9.2,1.9
			l-0.1,0c-1.7-0.2-3.1,1.1-3.8,3.4c-1.2,3.7-3,5.8-5.6,6.3C223,277.7,222.8,277.8,222.4,277.8z"/>
        </g>
        <g>
            <path fill="#C8E2E8" d="M133.1,196.9c0,31.9,24.6,57,56.6,57s56.6-26.7,56.6-58.6v-21.8l-44.5-9.3l-12.8-4.2l-12,3.7l-44.3,9.8
			L133.1,196.9z"/>
            <path fill="#169BD8" d="M189.7,245.6h-0.4c-11.7,0-21.2-9.5-21.2-21.2v-15.5c0-11.7,9.5-21.2,21.2-21.2h0.4
			c11.7,0,21.2,9.5,21.2,21.2v15.5C210.9,236.2,201.4,245.6,189.7,245.6z"/>
            <path fill="#010202" d="M201.1,223.4c-0.8,0-1.4,0.6-1.4,1.4c0,4.1-2.5,7.7-6.1,9.2c0,0,0,0,0,0c-0.2,0.1-0.4,0.1-0.6,0.2
			c-1.9,0.6-2-0.9-2.1-1.3v-18.8l0,0c0,0-0.1-1.3,1-1.5l0,0c3.5-0.9,6.2-3.8,6.7-7.4c0.1-0.3,0.1-0.7,0.1-1.1c0-0.1,0-0.1,0-0.2
			c0-0.1,0-0.1,0-0.2h0c-0.1-1.3-0.8-2.5-1.8-3.3l0,0c-0.1,0-0.1-0.1-0.2-0.1c0,0-0.1-0.1-0.1-0.1c-2-1.3-4.4-2.1-7-2.1
			c-2.6,0-5.1,0.8-7.1,2.2l0,0c-1.3,0.8-2.1,2.2-2.1,3.8c0,0.5,0.1,0.9,0.2,1.3c0.7,3.6,3.4,6.4,6.9,7.2v0c0.6,0.2,0.7,0.9,0.8,1.2
			v18.9c0,0.3-0.1,1.9-2.1,1.3c-0.2-0.1-0.4-0.1-0.5-0.2c0,0,0,0,0,0c-3.6-1.5-6.1-5.1-6.1-9.2c0-0.8-0.6-1.4-1.4-1.4
			s-1.4,0.6-1.4,1.4c0,7.1,5.8,12.9,12.9,12.9c7.1,0,12.9-5.8,12.9-12.9C202.5,224,201.9,223.4,201.1,223.4z"/>
        </g>
        <g>
            <path fill="#010202" d="M201.8,166.3c-3.6-3.1-8.1-4.8-12.9-4.8c-4.3,0-8.4,1.4-11.8,3.9l-1.8-2.4c4-3,8.7-4.5,13.6-4.5
			c5.5,0,10.7,2,14.8,5.5L201.8,166.3z"/>
            <g>
                <linearGradient id="SVGID_1_" gradientUnits="userSpaceOnUse" x1="200.7133" y1="171.5974" x2="256.145" y2="171.5974">
                    <stop offset="6.926126e-008" style="stop-color:#169BD8"/>
                    <stop offset="0.589" style="stop-color:#95C5E3"/>
                    <stop offset="1" style="stop-color:#C8E2E8"/>
                </linearGradient>
                <circle fill="url(#SVGID_1_)" cx="228.4" cy="171.6" r="27.7"/>
                <path fill="#010202" d="M228.4,200.8c-16.1,0-29.2-13.1-29.2-29.2s13.1-29.2,29.2-29.2c16.1,0,29.2,13.1,29.2,29.2
				S244.5,200.8,228.4,200.8z M228.4,145.4c-14.4,0-26.2,11.8-26.2,26.2s11.8,26.2,26.2,26.2s26.2-11.8,26.2-26.2
				S242.9,145.4,228.4,145.4z"/>
            </g>
            <g>
                <linearGradient id="SVGID_2_" gradientUnits="userSpaceOnUse" x1="122.6542" y1="171.5974" x2="178.0858" y2="171.5974">
                    <stop offset="6.926126e-008" style="stop-color:#169BD8"/>
                    <stop offset="0.589" style="stop-color:#95C5E3"/>
                    <stop offset="1" style="stop-color:#C8E2E8"/>
                </linearGradient>
                <circle fill="url(#SVGID_2_)" cx="150.4" cy="171.6" r="27.7"/>
                <path fill="#010202" d="M150.4,200.8c-16.1,0-29.2-13.1-29.2-29.2s13.1-29.2,29.2-29.2s29.2,13.1,29.2,29.2
				S166.5,200.8,150.4,200.8z M150.4,145.4c-14.4,0-26.2,11.8-26.2,26.2s11.8,26.2,26.2,26.2s26.2-11.8,26.2-26.2
				S164.8,145.4,150.4,145.4z"/>
            </g>
        </g>
    </g>
</svg>
