<?xml version="1.0" encoding="utf-8"?>
<!-- Generator: Adobe Illustrator 24.1.2, SVG Export Plug-In . SVG Version: 6.00 Build 0)  -->
<svg version="1.1" id="Calque_1" xmlns="http://www.w3.org/2000/svg" xmlns:xlink="http://www.w3.org/1999/xlink" x="0px" y="0px"
	 viewBox="0 0 2298.2 562" style="enable-background:new 0 0 2298.2 562;" xml:space="preserve">
<style type="text/css">
	.st0{fill:none;stroke:#000000;stroke-width:10;stroke-miterlimit:10;}
	.st1{fill:#009CDE;}
	.st2{fill:#FFFFFF;}
	.st3{fill:#C8E2E8;}
	.st4{fill:url(#SVGID_1_);}
	.st5{fill:url(#SVGID_2_);}
</style>
<g id="logos">
	<rect x="-175.9" y="-3320.3" class="st0" width="2655.6" height="5817.2"/>
	<g id="Logo">
		<circle class="st1" cx="396.6" cy="282.2" r="189.5"/>
		<path class="st2" d="M471.7,216.8l25.2-25.2c8.7-8.7,8.7-22.9,0-31.7c0,0,0,0,0,0l-0.3-0.3c-8.7-8.7-22.9-8.7-31.7,0c0,0,0,0,0,0
			l-25.6,25.6c-12.4-6.8-26.4-10.4-40.5-10.4H397c-14.2,0-28.1,3.5-40.6,10.4L331,159.8c-8.7-8.7-22.9-8.7-31.7,0c0,0,0,0,0,0
			l-0.3,0.3c-8.7,8.7-8.7,22.9,0,31.7c0,0,0,0,0,0l25,25c-7.5,12.9-11.5,27.6-11.5,42.5v193.5c53.9,26.6,117.2,26.2,170.7-1.2V259.3
			C483.2,244.4,479.2,229.7,471.7,216.8z"/>
		<path class="st1" d="M464.3,176l6-6.1c4-4,10.5-4.1,14.5-0.1c0,0,0,0,0,0l0.1,0.1c4,4,4.1,10.5,0.1,14.6l-20.4,20.7l-0.1-0.1
			C456.4,197.1,456.3,184.1,464.3,176z"/>
		<path class="st1" d="M329.6,176l-6-6.1c-4-4-10.5-4.1-14.5-0.1c0,0,0,0,0,0l-0.1,0.1c-4,4-4.1,10.5-0.1,14.5c0,0,0,0,0,0
			l20.4,20.7l0.1-0.1C337.4,197.1,337.5,184.1,329.6,176C329.6,176,329.6,176,329.6,176z"/>
		<path class="st1" d="M365.6,388.1c-0.4,0-0.8,0-1.2-0.1c-4.6-0.7-6.8-5.7-8.3-9c-0.2-0.5-0.4-0.9-0.6-1.3l-0.4-0.9
			c-0.3-0.8-0.7-1.6-1.3-2.2c-1,0.2-2.1,0.5-3,1l-1.2,0.5c-6.7,2.8-11,3-13.1,0.6c-4.2-4.9,4-18.5,4.9-20c0.3-0.6,1-0.8,1.5-0.5
			s0.8,1,0.5,1.5c0,0.1-0.1,0.1-0.1,0.2c-3.2,5.3-7.5,14.6-5.1,17.4c1.3,1.5,5,1.1,10.5-1.3l1.2-0.5c4.8-1.9,5.3-1.5,7.2,2.4
			l0.4,0.9c0.2,0.4,0.4,0.9,0.6,1.4c1.3,2.8,3.1,7.1,6.5,7.7c3.2,0.5,7.4-2.1,12.4-7.8c0.4-0.5,1.1-0.5,1.6-0.1
			c0.5,0.4,0.5,1.1,0.1,1.6l0,0C373.7,385.3,369.3,388.1,365.6,388.1z"/>
		<path class="st1" d="M444.1,417.4h-0.4c-5.6-0.2-9.8-5.2-11.2-8.3c-0.7-1.7-2.1-3.1-3.9-3.6c-2-0.5-4.5,0.1-6.8,1.8
			c-3.7,3-7.4,3.9-10.8,2.8c-8-2.6-11.6-15.6-11.8-16.2c-0.2-0.6,0.2-1.2,0.8-1.4c0,0,0,0,0,0c0.6-0.2,1.2,0.2,1.4,0.8
			c0,0.1,3.5,12.4,10.3,14.6c2.7,0.9,5.6,0,8.7-2.4c3-2.2,6.1-2.9,8.8-2.2c2.5,0.7,4.4,2.5,5.4,4.9c1.2,2.8,4.9,6.8,9.2,6.9
			s8.9-3.8,12.9-11.3c0.4-0.5,1.1-0.6,1.6-0.3c0.4,0.3,0.6,0.9,0.4,1.3C454.3,413.2,449.4,417.4,444.1,417.4z"/>
		<path class="st1" d="M354.3,450.2h-0.2c-7-0.2-11.7-10.5-11.9-10.9c-0.3-0.6-0.1-1.2,0.5-1.5c0.6-0.3,1.2-0.1,1.5,0.5
			c0,0.1,0.1,0.1,0.1,0.2c0,0.1,4.4,9.4,9.9,9.6h0.1c3,0,6-2.8,9-8.4c1.1-2.5,3.2-4.3,5.8-5c3.1-0.8,6.3-0.1,8.8,1.8
			c1.9,1.4,6.1,2.6,9,0.7c3.5-2.3,4.3-8.4,2.3-17.8c-0.1-0.6,0.2-1.2,0.8-1.4c0.6-0.1,1.2,0.2,1.4,0.8c0,0,0,0,0,0.1
			c2.2,10.5,1.1,17.3-3.3,20.2c-3.8,2.5-9.1,1-11.6-0.8c-2-1.5-4.5-2-6.9-1.5c-2,0.5-3.6,1.9-4.4,3.8
			C362,446.9,358.3,450.2,354.3,450.2z"/>
		<path class="st1" d="M429.5,370.6c-1.8,0-6.4-0.8-11.8-7.7c-0.4-0.5-0.3-1.2,0.2-1.6c0.5-0.4,1.2-0.3,1.5,0.2
			c1.6,2.1,6.7,7.4,10.3,6.8c1.6-0.3,2.9-1.9,3.8-4.7c1-3.5,3.5-5.4,6.3-5h0.1c2.1,0.3,5.5,0.8,7.1-1.1c1.1-1.3,1.7-4.6-1.3-12.3
			c-0.2-0.6,0.1-1.2,0.7-1.5c0.6-0.2,1.2,0.1,1.5,0.6c0,0,0,0,0,0c2.7,7.1,3,11.9,0.9,14.5c-2.3,2.9-6.6,2.3-9.2,1.9h-0.1
			c-1.7-0.3-3.1,1-3.8,3.4c-1.2,3.7-3,5.8-5.6,6.3C430,370.6,429.8,370.6,429.5,370.6z"/>
		<path class="st3" d="M340.3,289.7c0,31.9,24.6,57,56.6,57s56.6-26.7,56.6-58.7v-21.7l-44.5-9.3l-12.8-4.2l-12,3.7l-44.3,9.8
			L340.3,289.7z"/>
		<path class="st1" d="M396.4,280.5h0.4c11.7,0,21.2,9.5,21.2,21.2v15.5c0,11.7-9.5,21.2-21.2,21.2h-0.4c-11.7,0-21.2-9.5-21.2-21.2
			v-15.5C375.3,290,384.7,280.5,396.4,280.5z"/>
		<path d="M408.2,316.1c-0.8,0-1.4,0.6-1.4,1.4c0,0,0,0,0,0c0,4-2.4,7.6-6.1,9.2l0,0l-0.6,0.2c-1.9,0.6-2-0.9-2-1.3v-18.8l0,0
			c0,0-0.1-1.3,1-1.5l0,0c3.5-0.9,6.2-3.8,6.7-7.4c0.1-0.3,0.1-0.7,0.1-1c0-0.1,0-0.1,0-0.2s0-0.1,0-0.2l0,0
			c-0.1-1.3-0.8-2.5-1.8-3.3l0,0l-0.2-0.1l-0.1-0.1c-4.3-2.8-9.9-2.8-14.1,0.1l0,0c-1.3,0.8-2.1,2.3-2.1,3.8c0,0.4,0.1,0.9,0.2,1.3
			c0.7,3.6,3.4,6.4,6.9,7.2l0,0c0.5,0.2,0.8,0.7,0.8,1.2v18.9c0,0.3-0.1,1.9-2.1,1.3l-0.5-0.2l0,0c-3.7-1.6-6.1-5.2-6.1-9.2
			c0-0.8-0.6-1.4-1.4-1.4s-1.4,0.6-1.4,1.4l0,0c0.2,7.1,6.1,12.7,13.3,12.5c6.8-0.2,12.3-5.7,12.5-12.5c0-0.8-0.6-1.4-1.4-1.5
			C408.3,316.1,408.3,316.1,408.2,316.1z"/>
		<path d="M408.9,259.1c-7-6-17.3-6.4-24.7-0.9l-1.8-2.4c8.5-6.4,20.4-6,28.5,1L408.9,259.1z"/>

			<linearGradient id="SVGID_1_" gradientUnits="userSpaceOnUse" x1="407.87" y1="297.5198" x2="463.31" y2="297.5198" gradientTransform="matrix(1 0 0 -1 0 561.8898)">
			<stop  offset="0" style="stop-color:#009CDE"/>
			<stop  offset="0.12" style="stop-color:#19A5DF"/>
			<stop  offset="0.73" style="stop-color:#96D1E6"/>
			<stop  offset="1" style="stop-color:#C8E2E8"/>
		</linearGradient>
		<circle class="st4" cx="435.6" cy="264.4" r="27.7"/>
		<path d="M435.6,293.6c-16.1,0-29.2-13.1-29.3-29.2c0-16.1,13.1-29.2,29.2-29.2s29.2,13.1,29.3,29.2c0,0,0,0,0,0
			C464.8,280.5,451.7,293.6,435.6,293.6z M435.6,238.2c-14.5,0-26.2,11.7-26.2,26.2c0,14.5,11.7,26.2,26.2,26.2
			c14.5,0,26.2-11.7,26.2-26.2c0,0,0,0,0,0C461.8,249.9,450,238.2,435.6,238.2z"/>

			<linearGradient id="SVGID_2_" gradientUnits="userSpaceOnUse" x1="329.81" y1="297.5198" x2="385.25" y2="297.5198" gradientTransform="matrix(1 0 0 -1 0 561.8898)">
			<stop  offset="0" style="stop-color:#009CDE"/>
			<stop  offset="0.12" style="stop-color:#19A5DF"/>
			<stop  offset="0.73" style="stop-color:#96D1E6"/>
			<stop  offset="1" style="stop-color:#C8E2E8"/>
		</linearGradient>
		<circle class="st5" cx="357.5" cy="264.4" r="27.7"/>
		<path d="M357.5,293.6c-16.1,0-29.2-13.1-29.3-29.2c0-16.1,13.1-29.2,29.2-29.2s29.2,13.1,29.3,29.2c0,0,0,0,0,0
			C386.7,280.5,373.7,293.6,357.5,293.6z M357.5,238.2c-14.5,0-26.2,11.7-26.2,26.2c0,14.5,11.7,26.2,26.2,26.2
			c14.5,0,26.2-11.7,26.2-26.2c0,0,0,0,0,0C383.7,249.9,372,238.2,357.5,238.2z"/>
		<path d="M1460.3,249.4c-16.3-0.2-31.9,6.2-43.3,17.9c-11.9,11.9-18,26.1-18,42.3s6,30.6,17.7,42.8s26.1,18.4,42.5,18.4h2.2
			c16.6,0,30.9-6.1,42.5-18.3s17.5-26.5,17.5-42.8s-6-30.6-17.9-42.5C1492.2,255.7,1476.6,249.2,1460.3,249.4z M1508.4,310.3
			c0.1,12.8-5,25.2-14.1,34.2c-8.8,9.3-21,14.5-33.8,14.4c-13.1,0-24.6-4.9-34.2-14.4s-14.4-21-14.4-34.1s4.9-24.6,14.4-34.3
			s21-14.6,34-14.6s24.4,4.9,33.8,14.5S1508.4,297.1,1508.4,310.3L1508.4,310.3z"/>
		<path d="M1375.1,343.7c-2.5-2.5-6.6-2.5-9.2-0.1c-3.5,3.7-7.6,6.9-12.1,9.4c-7.1,4.1-15.1,6.3-23.3,6.3
			c-12.9,0-24.3-4.9-33.8-14.4s-14.4-21.1-14.4-34.3s4.8-24.8,14.4-34.3s21-14.4,33.8-14.4c8.2,0,16.2,2.2,23.3,6.3
			c4.4,2.5,8.5,5.7,12.1,9.3c2.5,2.4,6.6,2.4,9.1,0c2.4-2.5,2.5-6.3,0.2-8.9c-12.1-12.4-26.8-18.7-43.7-18.7
			c-17.4,0-32.2,6-44.2,17.9s-18,26.1-18,42.5s6,30.7,17.7,42.8s26.1,18.3,42.5,18.3h2.2c17.2,0,32-6.4,43.8-19l0.2-0.3
			c0.7-0.9,1.1-2,1.2-3.2v-1.1C1376.9,346.2,1376.2,344.8,1375.1,343.7z"/>
		<path d="M1939.3,264.4c3.3,0,5.9-2.6,6-5.8v-0.4c-0.1-3.2-2.8-5.7-6-5.7h-28v-38.9c-0.2-3.2-2.8-5.8-6-6h-0.9
			c-3.4,0.3-6,3.1-6,6.5v111.4c0,12.8,4.4,23.5,13.1,31.8c7.5,7.2,17.3,11.6,27.7,12.2h0.3c3.2-0.1,5.7-2.8,5.7-6
			c0.1-3.2-2.4-5.9-5.6-6c-7.2-0.6-14-3.8-19-9c-6.2-6.1-9.2-13.7-9.2-23.1v-61H1939.3z"/>
		<path d="M2081.9,252.1h-0.5c-3.5,0.2-6.2,3-6.2,6.5v14.1c-4.3-6-9.9-10.9-16.3-14.5c-9.5-5.7-20.4-8.7-31.5-8.7
			c-16.2-0.2-31.8,6.3-43.2,17.9c-11.9,11.9-18,26.3-18,42.8s6.1,31,18,42.8c11.3,11.6,27,18.1,43.2,17.9c10.9,0,21.5-2.9,30.9-8.5
			c6.6-3.9,12.4-9,16.9-15.2v14.5c-0.1,3.6,2.8,6.5,6.4,6.6c3.6,0.1,6.5-2.8,6.6-6.4V258.6C2088.2,255.1,2085.4,252.2,2081.9,252.1z
			 M2075.8,310.3c0.1,12.8-4.9,25.2-14.1,34.2c-8.8,9.3-21,14.5-33.8,14.4c-13.1,0-24.6-4.9-34.2-14.4s-14.4-21-14.4-34.1
			s4.8-24.6,14.4-34.3s21-14.6,34-14.6s24.4,4.9,33.8,14.5S2075.8,297.1,2075.8,310.3z"/>
		<path class="st1" d="M751.5,357.4c-7.1-0.6-13.8-3.7-18.8-8.8c-6-5.9-9-13.5-9-22.5V184.7c-0.1-4-3.5-7.1-7.5-7
			c-3.8,0.1-6.8,3.2-7,7v141.5c0,13,4.5,23.9,13.3,32.3c7.8,7.5,17.9,11.9,28.7,12.5h0.3c3.6-0.1,6.5-3.1,6.5-6.7
			C757.9,360.7,755.1,357.6,751.5,357.4z"/>
		<path class="st1" d="M883.6,251.4h-0.2c-3.9,0.1-7.1,3.3-7.1,7.2v11.7c-4.2-5.2-9.3-9.6-15.1-12.9c-9.6-5.7-20.6-8.8-31.8-8.8
			c-16.4-0.2-32.2,6.3-43.7,18.1c-12.1,12-18.2,26.6-18.2,43.4s6.1,31.4,18.2,43.4c11.5,11.8,27.3,18.3,43.7,18.1
			c11,0,21.8-3,31.2-8.6c6-3.5,11.4-8.1,15.7-13.6v12.2c0,4,3.2,7.2,7.2,7.2h0.3c3.9-0.1,7.1-3.3,7.1-7.2V258.6
			C890.7,254.7,887.5,251.4,883.6,251.4z M876.8,310.3c0.1,12.6-4.9,24.8-13.8,33.7c-8.6,9.2-20.7,14.3-33.2,14.2
			c-12.9,0-24.2-4.8-33.6-14.2s-14.2-20.7-14.2-33.5s4.8-24.2,14.2-33.8s20.7-14.4,33.5-14.4s24,4.8,33.3,14.3
			S876.8,297.3,876.8,310.3z"/>
		<path class="st1" d="M1045.9,248.6c-10.7,0-19.9,2.6-27.4,7.7c-5.2,3.5-9.5,8.1-12.5,13.6c-3-5.2-7.1-9.8-11.9-13.4
			c-7-5.3-14.4-7.9-22.1-7.9c-7.7,0-15.2,2-21.8,5.8c-3.5,1.9-6.8,4.2-9.7,6.9v-2.8c0-3.9-3.1-7.1-7-7.2H933c-3.9,0.1-7,3.3-7,7.2
			v103.2c0.1,3.9,3.2,7,7.1,7.1h0.5c3.9-0.1,7-3.3,7-7.2v-70c0-7.8,3-14.7,8.9-20.6c5.4-5.7,13-8.9,20.8-8.9
			c7.7-0.1,15.1,3.1,20.3,8.7c5.5,5.5,8.5,13,8.5,20.7v70.1c0,3.6,2.7,6.6,6.2,7.2h1.7h0.4c3.5-0.5,6.1-3.5,6.2-7v-70.2
			c0-7.7,3.1-14.6,9.2-20.5c6.1-5.9,13.3-8.9,21.1-8.9c7.6-0.1,14.9,3,20.2,8.5c5.6,5.7,8.4,12.9,8.4,21.5v69.5c0.1,4,3.5,7.1,7.5,7
			c3.8-0.1,6.8-3.2,7-7v-69.5c0-13.2-4.2-23.9-12.4-31.7S1056.8,248.6,1045.9,248.6z"/>
		<path class="st1" d="M1232.4,251.4h-0.4c-3.9,0.1-7,3.3-7,7.2v11.8c-4.2-5.2-9.3-9.6-15.1-12.9c-9.6-5.7-20.6-8.8-31.9-8.8
			c-16.4-0.2-32.2,6.3-43.7,18.1c-12.1,12-18.2,26.6-18.2,43.4s6.1,31.4,18.2,43.4c11.5,11.8,27.3,18.3,43.7,18.1
			c11,0,21.8-3,31.3-8.6c6-3.5,11.4-8.1,15.7-13.6v12.2c0,3.9,3.1,7.1,7,7.2h0.5c3.9-0.2,6.9-3.3,6.9-7.2V258.6
			C1239.5,254.7,1236.3,251.4,1232.4,251.4z M1225.5,310.3c0.1,12.6-4.9,24.8-13.8,33.7c-8.6,9.2-20.7,14.3-33.2,14.2
			c-12.9,0-24.2-4.8-33.6-14.2s-14.2-20.7-14.2-33.5s4.8-24.2,14.2-33.8s20.7-14.4,33.5-14.4s24,4.8,33.2,14.3
			S1225.5,297.3,1225.5,310.3z"/>
		<path d="M1671.2,249.4c-10.5,0-19.6,2.6-26.9,7.6c-5.5,3.7-9.9,8.7-12.9,14.6c-3-5.7-7.2-10.6-12.3-14.5
			c-6.8-5.2-14.1-7.8-21.6-7.8c-7.5,0-14.9,2-21.4,5.7c-4,2.2-7.6,4.9-10.9,8v-5.1c-0.2-3-2.5-5.5-5.6-5.9h-1.4h-0.3
			c-3.2,0.4-5.6,3.2-5.6,6.4v103.1c0,3.3,2.5,6.1,5.7,6.4h1.5c3.1-0.4,5.5-2.9,5.7-5.9v-70.5c0-8.1,3-15,9.1-21.1s13.1-9.1,21.4-9.1
			c7.9-0.1,15.5,3.2,20.8,9c5.7,5.6,8.8,13.3,8.7,21.3v70.1c0.1,3.5,2.8,6.3,6.3,6.4h0.6c3.3-0.2,6-2.9,6.1-6.2v-70.3
			c0-8.1,3.1-15,9.4-21.1s13.5-9.1,21.7-9.1c7.8-0.1,15.4,3,20.8,8.7c5.8,5.9,8.6,13.1,8.6,22v70c0.3,3.3,2.9,5.9,6.2,6h0.6
			c3.4-0.2,6.1-3,6.1-6.5v-69.5c0-13-4.1-23.5-12.1-31.2C1691.8,253.5,1681.7,249.4,1671.2,249.4z"/>
		<path d="M1808.9,249.4c-10.8,0.1-21.4,3-30.7,8.5c-6.6,3.7-12.4,8.8-17,14.9v-14.2c0-3.5-2.8-6.3-6.3-6.5h-0.6
			c-3.4,0.2-6.1,3-6.1,6.5v152.3c0,3.4,2.6,6.2,6,6.5h1c3.2-0.3,5.7-2.8,5.9-5.9v-64.2c4.8,6.2,10.8,11.4,17.7,15.2
			c9.1,5.4,19.5,8.3,30.1,8.3c16.3,0.3,31.9-6.2,43.3-17.8c11.9-11.9,17.9-26.3,17.9-42.8s-6-31-17.9-42.8
			C1840.9,255.7,1825.2,249.2,1808.9,249.4z M1857.2,310.3c0.1,12.8-5,25.2-14.1,34.2c-8.8,9.3-21,14.5-33.8,14.4
			c-13.1,0-24.6-4.9-34.2-14.4s-14.4-21-14.4-34.1s4.8-24.6,14.4-34.3s21-14.6,34.1-14.6s24.4,4.9,33.8,14.5
			S1857.2,297.1,1857.2,310.3z"/>
	</g>
</g>
</svg>
